<svg xmlns="http://www.w3.org/2000/svg" xmlns:osb="http://www.openswatchbook.org/uri/2009/osb" xmlns:svg="http://www.w3.org/2000/svg" xmlns:xlink="http://www.w3.org/1999/xlink" id="SVGRoot" width="512" height="512" version="1.1" viewBox="0 0 512 512"><defs id="defs3723"><linearGradient id="linearGradient1657"><stop style="stop-color:#000;stop-opacity:1" id="stop1653" offset="0"/><stop style="stop-color:#000;stop-opacity:0" id="stop1655" offset="1"/></linearGradient><linearGradient id="linearGradient1195"><stop style="stop-color:#000;stop-opacity:1" id="stop1191" offset="0"/><stop style="stop-color:#000;stop-opacity:.28184971" id="stop1193" offset="1"/></linearGradient><linearGradient id="linearGradient3254"><stop style="stop-color:#000;stop-opacity:1" id="stop3250" offset="0"/><stop style="stop-color:#000;stop-opacity:.29993287" id="stop3252" offset="1"/></linearGradient><linearGradient id="linearGradient3214"><stop style="stop-color:#000;stop-opacity:1" id="stop3210" offset="0"/><stop style="stop-color:#000;stop-opacity:.25359842" id="stop3212" offset="1"/></linearGradient><rect id="rect33" width="277.427" height="226.739" x="89.6" y="115.2"/><linearGradient id="linearGradient7611" osb:paint="gradient"><stop style="stop-color:#000;stop-opacity:1" id="stop7607" offset="0"/><stop style="stop-color:#000;stop-opacity:0" id="stop7609" offset="1"/></linearGradient><linearGradient id="linearGradient7497" osb:paint="solid"><stop style="stop-color:#000;stop-opacity:1" id="stop7495" offset="0"/></linearGradient><linearGradient id="linearGradient7491" osb:paint="solid"><stop style="stop-color:maroon;stop-opacity:1" id="stop7489" offset="0"/></linearGradient><linearGradient id="linearGradient3216" x1=".3" x2="511.7" y1="256" y2="256" gradientUnits="userSpaceOnUse" xlink:href="#linearGradient3214"/><linearGradient id="linearGradient3256" x1="89.6" x2="325.124" y1="221.798" y2="221.798" gradientTransform="matrix(1.7389845,-3.0898198e-5,-0.01851171,1.6952214,52.546374,-162.35302)" gradientUnits="userSpaceOnUse" xlink:href="#linearGradient3254"/><linearGradient id="linearGradient1197" x1="105.706" x2="339.496" y1="228.168" y2="228.168" gradientTransform="matrix(1.2355853,0,0,1,-53.228273,-0.80083028)" gradientUnits="userSpaceOnUse" xlink:href="#linearGradient1195"/><clipPath id="clipPath3817" clipPathUnits="userSpaceOnUse"><g id="use3819"><g id="g4005" transform="matrix(1.3636366,0,0,1.3636366,-112.72736,-127.27283)" style="stroke-width:.733333"><rect style="fill:#000;fill-opacity:1;fill-rule:evenodd;stroke:none;stroke-width:.733333;stroke-linejoin:round;stroke-miterlimit:4;stroke-dasharray:none;stroke-opacity:.282353" id="rect3997" width="120" height="13.76" x="310" y="336.24" ry="6.88"/><rect style="fill:#000;fill-opacity:1;fill-rule:evenodd;stroke:none;stroke-width:.733333;stroke-linejoin:round;stroke-miterlimit:4;stroke-dasharray:none;stroke-opacity:.282353" id="rect3999" width="120" height="20" x="230" y="-330" ry="10" transform="rotate(90)"/><rect style="fill:#000;fill-opacity:1;fill-rule:evenodd;stroke:none;stroke-width:.733332;stroke-linejoin:round;stroke-miterlimit:4;stroke-dasharray:none;stroke-opacity:.282353" id="rect4001" width="90" height="13.76" x="310" y="286.24" ry="6.88"/><rect style="fill:#000;fill-opacity:1;fill-rule:evenodd;stroke:none;stroke-width:.733333;stroke-linejoin:round;stroke-miterlimit:4;stroke-dasharray:none;stroke-opacity:.282353" id="rect4003" width="110" height="13.76" x="310" y="230" ry="6.88"/></g></g></clipPath><clipPath id="clipPath3985" clipPathUnits="userSpaceOnUse"><g id="use3987"><g id="g4024" clip-path="url(#clipPath3817)" transform="translate(-30,6.2397919)"><g id="g4022" transform="matrix(1.3636366,0,0,1.3636366,-112.72736,-127.27283)" style="stroke-width:.733333"><rect style="fill:#000;fill-opacity:1;fill-rule:evenodd;stroke:none;stroke-width:.733333;stroke-linejoin:round;stroke-miterlimit:4;stroke-dasharray:none;stroke-opacity:.282353" id="rect4014" width="120" height="13.76" x="310" y="336.24" ry="6.88"/><rect style="fill:#000;fill-opacity:1;fill-rule:evenodd;stroke:none;stroke-width:.733333;stroke-linejoin:round;stroke-miterlimit:4;stroke-dasharray:none;stroke-opacity:.282353" id="rect4016" width="120" height="20" x="230" y="-330" ry="10" transform="rotate(90)"/><rect style="fill:#000;fill-opacity:1;fill-rule:evenodd;stroke:none;stroke-width:.733332;stroke-linejoin:round;stroke-miterlimit:4;stroke-dasharray:none;stroke-opacity:.282353" id="rect4018" width="90" height="13.76" x="310" y="286.24" ry="6.88"/><rect style="fill:#000;fill-opacity:1;fill-rule:evenodd;stroke:none;stroke-width:.733333;stroke-linejoin:round;stroke-miterlimit:4;stroke-dasharray:none;stroke-opacity:.282353" id="rect4020" width="110" height="13.76" x="310" y="230" ry="6.88"/></g></g></g></clipPath><linearGradient id="linearGradient1659" x1="260.475" x2="424.057" y1="295.558" y2="295.558" gradientUnits="userSpaceOnUse" xlink:href="#linearGradient1657"/><linearGradient id="linearGradient903" x1="105.706" x2="339.496" y1="228.168" y2="228.168" gradientTransform="matrix(1.2355853,0,0,1,-53.228273,-0.80083028)" gradientUnits="userSpaceOnUse" xlink:href="#linearGradient1195"/><linearGradient id="linearGradient905" x1="105.706" x2="339.496" y1="228.168" y2="228.168" gradientTransform="matrix(1.2355853,0,0,1,-53.228273,-0.80083028)" gradientUnits="userSpaceOnUse" xlink:href="#linearGradient1195"/></defs><metadata id="metadata3726"/><g id="layer1"><circle style="opacity:1;fill:none;fill-rule:evenodd;stroke:#bfbfbf;stroke-width:25;stroke-linecap:butt;stroke-linejoin:round;stroke-miterlimit:4;stroke-dasharray:none;stroke-opacity:1;paint-order:normal" id="path1538" cx="256" cy="256" r="243.2"/><g id="g138" transform="matrix(1.0564437,0,0,1.0529452,-15.12277,-15.293132)" style="fill:url(#linearGradient1197);fill-opacity:1;stroke-width:.948142"><g id="g136" style="fill:url(#linearGradient905);fill-opacity:1;stroke-width:.948142"><path id="path134" d="m 322.797,72.308 h -14.134 c -19.28,-0.003 -37.373,6.627 -51.694,17.927 -7.167,5.651 -13.414,12.476 -18.435,20.242 -5.021,7.764 -8.814,16.476 -11.062,25.842 l -42.217,175.905 c -1.357,5.651 -3.625,10.849 -6.632,15.501 -4.509,6.976 -10.698,12.715 -17.921,16.696 -7.229,3.98 -15.45,6.207 -24.163,6.209 h -14.134 c -9.222,0 -16.699,7.477 -16.699,16.699 0,9.222 7.477,16.699 16.699,16.699 h 14.134 c 19.28,0.003 37.373,-6.627 51.694,-17.927 7.167,-5.651 13.414,-12.475 18.435,-20.242 5.021,-7.764 8.814,-16.476 11.062,-25.842 l 42.217,-175.905 c 1.357,-5.651 3.625,-10.849 6.632,-15.501 4.509,-6.976 10.698,-12.715 17.921,-16.696 7.229,-3.98 15.45,-6.209 24.163,-6.209 h 14.134 c 9.222,0 16.699,-7.477 16.699,-16.699 0,-9.222 -7.476,-16.699 -16.699,-16.699 z" style="fill:#bebebe;fill-opacity:1;stroke-width:.948142"/></g></g><path id="path1641" d="m 342.09766,211.11523 c -2.59694,-0.0192 -5.2163,0.0846 -7.84961,0.31446 -42.70929,3.72798 -72.94573,42.13139 -73.75782,84.0625 -0.81895,42.2853 30.52729,78.54721 72.48633,83.85351 41.95904,5.3063 81.34648,-22.012 91.08008,-63.16992 l -19.46289,-4.60156 c -7.4194,31.37244 -37.12434,51.97439 -69.10742,47.92969 -31.98308,-4.0447 -55.62425,-31.39323 -55,-63.625 0.0544,-2.81099 0.28889,-5.59424 0.67187,-8.33985 C 282.05172,287.83468 283.00485,288 284,288 h 130 c 4.986,0 9,-4.014 9,-9 0,-1.31911 -0.28739,-2.56665 -0.79297,-3.69336 -8.66867,-37.44844 -42.08787,-63.91022 -80.10937,-64.19141 z m -0.13086,19.9961 c 25.49995,0.16693 48.10162,15.69003 57.63476,38.88867 H 285.96484 c 8.75749,-20.88334 27.2474,-36.65843 50.02344,-38.64648 2.00723,-0.17521 4.00128,-0.25514 5.97852,-0.24219 z" style="color:#000;font-style:normal;font-variant:normal;font-weight:400;font-stretch:normal;font-size:medium;line-height:normal;font-family:sans-serif;font-variant-ligatures:normal;font-variant-position:normal;font-variant-caps:normal;font-variant-numeric:normal;font-variant-alternates:normal;font-variant-east-asian:normal;font-feature-settings:normal;font-variation-settings:normal;text-indent:0;text-align:start;text-decoration:none;text-decoration-line:none;text-decoration-style:solid;text-decoration-color:#000;letter-spacing:normal;word-spacing:normal;text-transform:none;writing-mode:lr-tb;direction:ltr;text-orientation:mixed;dominant-baseline:auto;baseline-shift:baseline;text-anchor:start;white-space:normal;shape-padding:0;shape-margin:0;inline-size:0;clip-rule:nonzero;display:inline;overflow:visible;visibility:visible;opacity:1;isolation:auto;mix-blend-mode:normal;color-interpolation:sRGB;color-interpolation-filters:linearRGB;solid-color:#000;solid-opacity:1;vector-effect:none;fill:#bebebe;fill-opacity:1;fill-rule:evenodd;stroke:none;stroke-width:20;stroke-linecap:butt;stroke-linejoin:round;stroke-miterlimit:4;stroke-dasharray:none;stroke-dashoffset:0;stroke-opacity:1;color-rendering:auto;image-rendering:auto;shape-rendering:auto;text-rendering:auto;enable-background:accumulate;stop-color:#000;stop-opacity:1"/></g></svg>